# xmcd
#
# Track frame offsets:
#	150
#	18850
#	37228
#	64595
#	79803
#	104215
#	121928
#	142160
#	157620
#	175260
#	199775
#	218550
#
# Disc length: 3053 seconds
#
# Revision: 0
# Processed by: cddbd v1.4PL0 Copyright (c) Steve Scherf et al.
# Submitted via: dBpowerAMP V4.0
#
DISCID=a40beb0c
DTITLE=Big Mouth - All U Can Eat
DYEAR=1993
DGENRE=Blues
TTITLE0=What's Up With That
TTITLE1=Danka Ein Hosen Loaden
TTITLE2=Blackhole Boogie
TTITLE3=Big Road
TTITLE4=You Don't Miss Your Water
TTITLE5=Lay Down Your Love
TTITLE6=Waiting For You
TTITLE7=Too Many Women
TTITLE8=Whine Whine
TTITLE9=I Messed Up
TTITLE10=By Myself
TTITLE11=Monkey Woman
EXTD=
EXTT0=
EXTT1=
EXTT2=
EXTT3=
EXTT4=
EXTT5=
EXTT6=
EXTT7=
EXTT8=
EXTT9=
EXTT10=
EXTT11=
PLAYORDER=
